<?xml version="1.0" encoding="utf-8"?>
<!-- Generator: Adobe Illustrator 18.1.0, SVG Export Plug-In . SVG Version: 6.00 Build 0)  -->
<!DOCTYPE svg PUBLIC "-//W3C//DTD SVG 1.1//EN" "http://www.w3.org/Graphics/SVG/1.1/DTD/svg11.dtd">
<svg version="1.1" id="Layer_1" xmlns="http://www.w3.org/2000/svg" xmlns:xlink="http://www.w3.org/1999/xlink" x="0px" y="0px"
	 viewBox="0 0 134 56" enable-background="new 0 0 134 56" xml:space="preserve">
<g>
	<path fill="#6D6E71" d="M42.3,38.8h-4.9l-6.4-18.4H36l3.7,13L42.9,22c0.4-1.1,1.1-1.7,2.2-1.7h3.6L42.3,38.8z"/>
	<path fill="#6D6E71" d="M63.1,38c-1,0.5-2,0.8-3.1,0.9c-1.1,0.1-2,0.2-2.9,0.2c-1.7,0-3.1-0.5-4.4-1.4S51,35.4,51,33.3
		c0-1.9,0.6-3.3,1.7-4.2c1.1-0.8,2.6-1.4,4.3-1.7c0.2,0,0.5,0,0.8-0.1c0.3-0.1,0.7-0.1,1.1-0.2c2-0.3,3-0.9,3-1.8
		c0-0.7-0.4-1.1-1.1-1.4c-0.7-0.2-1.4-0.3-2-0.3c-0.6,0-1.2,0.1-1.7,0.3c-0.5,0.2-0.9,0.5-1.1,1h-4.6c0.2-1.4,0.8-2.6,1.9-3.5
		c1.2-1.1,3-1.6,5.3-1.6c2.6,0,4.5,0.4,5.8,1.3c1.3,0.9,2,2.2,2,3.9v6.3c0,1.8-0.3,3.3-1,4.3C64.9,36.8,64.1,37.6,63.1,38z M62,29.5
		c-0.6,0.3-1.5,0.6-2.7,0.9l-1.6,0.3c-0.8,0.2-1.4,0.5-1.8,0.9c-0.3,0.5-0.5,1-0.5,1.5c0,0.7,0.2,1.2,0.6,1.7c0.4,0.4,1,0.6,1.8,0.6
		c1.3,0,2.3-0.4,3-1.1c0.7-0.7,1.1-1.8,1.1-3V29.5z"/>
	<path fill="#6D6E71" d="M69,38.8v-8.9c0-1.8,0.3-3.3,0.8-4.5c0.5-1.2,1.3-2.2,2.2-2.9c0.9-0.7,1.9-1.2,3.1-1.5
		c1.2-0.3,2.4-0.5,3.6-0.5c0.1,0,0.2,0,0.3,0s0.3,0,0.3,0v4.9h-1.6c-1.3,0-2.3,0.3-3,1c-0.6,0.6-1,1.7-1,3v9.5H69z"/>
	<path fill="#6D6E71" d="M81.2,32.7h4.7c0,0.9,0.4,1.6,1,2.1c0.7,0.5,1.6,0.7,2.8,0.7c0.8,0,1.5-0.2,2.1-0.5
		c0.6-0.3,0.8-0.8,0.8-1.3c0-0.8-1-1.5-2.9-1.9c-0.8-0.1-1.5-0.3-1.9-0.4c-2.4-0.6-4.1-1.3-4.9-2.1c-0.9-0.8-1.4-1.9-1.4-3.3
		c0-1.8,0.7-3.2,2-4.4c1.4-1.1,3.2-1.6,5.4-1.6c2.4,0,4.3,0.5,5.7,1.6c1.3,1.2,2.1,2.7,2.1,4.5h-3c-0.9,0-1.5-0.4-2-1.2
		c-0.2-0.2-0.4-0.4-0.6-0.6c-0.6-0.4-1.3-0.6-2.3-0.6c-0.9,0-1.6,0.1-2.1,0.4c-0.4,0.3-0.6,0.7-0.6,1.2c0,0.7,1.2,1.4,3.6,1.9
		c0.3,0.1,0.5,0.2,0.7,0.2c0.2,0,0.4,0.1,0.6,0.1c2.4,0.6,4,1.3,4.9,2.1c0.9,0.8,1.3,1.9,1.3,3.3c0,2-0.7,3.6-2.2,4.7
		c-1.4,1-3.5,1.5-6.2,1.5c-2.6,0-4.6-0.5-5.9-1.6c-1.3-1.1-2-2.6-2-4.6V32.7z"/>
	<path fill="#6D6E71" d="M100.5,15h2.5c0.6,0,1.2,0.2,1.7,0.7c0.5,0.5,0.7,1,0.7,1.7v1.5h-4.8V15z M100.5,20.4h2.5
		c0.6,0,1.2,0.2,1.7,0.7c0.5,0.5,0.7,1,0.7,1.7v16.1h-4.8V20.4z"/>
	<path fill="#6D6E71" d="M115.5,38.8c-1.5,0.1-3.2,0.1-5-0.1c-1.8-0.1-2.7-1.3-2.7-3.4V15h2.5c0.6,0,1.1,0.2,1.6,0.7
		c0.5,0.5,0.7,1,0.7,1.7v3.1h2.8v1c0,0.7-0.2,1.3-0.7,1.7c-0.5,0.4-1,0.7-1.7,0.7h-0.5V34c0,0.8,0.5,1.2,1.4,1.2h1.5V38.8z"/>
	<path fill="#6D6E71" d="M129.5,38c-1,0.5-2,0.8-3.1,0.9c-1.1,0.1-2,0.2-2.9,0.2c-1.7,0-3.1-0.5-4.4-1.4c-1.2-0.9-1.9-2.4-1.9-4.5
		c0-1.9,0.6-3.3,1.7-4.2c1.1-0.8,2.6-1.4,4.3-1.7c0.2,0,0.5,0,0.8-0.1c0.3-0.1,0.7-0.1,1.1-0.2c2-0.3,3-0.9,3-1.8
		c0-0.7-0.4-1.1-1.1-1.4c-0.7-0.2-1.4-0.3-2-0.3c-0.6,0-1.2,0.1-1.7,0.3c-0.5,0.2-0.9,0.5-1.1,1h-4.6c0.2-1.4,0.8-2.6,1.9-3.5
		c1.2-1.1,3-1.6,5.3-1.6c2.6,0,4.5,0.4,5.8,1.3c1.3,0.9,2,2.2,2,3.9v6.3c0,1.8-0.3,3.3-1,4.3C131.2,36.8,130.4,37.6,129.5,38z
		 M128.4,29.5c-0.6,0.3-1.5,0.6-2.7,0.9l-1.6,0.3c-0.8,0.2-1.4,0.5-1.8,0.9c-0.3,0.5-0.5,1-0.5,1.5c0,0.7,0.2,1.2,0.6,1.7
		c0.4,0.4,1,0.6,1.8,0.6c1.3,0,2.3-0.4,3-1.1c0.7-0.7,1.1-1.8,1.1-3V29.5z"/>
</g>
<g>
	<path fill="#A7A9AC" d="M31.6,47.1h3.1c0,0.1,0,0.2,0,0.3c0,0.1,0,0.1,0,0.2c0,0.1,0,0.1,0,0.2h-2.3v1.6h1.8c0,0.1,0,0.1,0,0.2
		c0,0.1,0,0.1,0,0.2s0,0.1,0,0.2c0,0.1,0,0.1,0,0.2h-1.8V52h2.3c0,0.1,0,0.2,0,0.3c0,0.1,0,0.1,0,0.2s0,0.1,0,0.2h-3.1V47.1z"/>
	<path fill="#A7A9AC" d="M38.1,47c0.1,0,0.1,0,0.2,0c0.1,0,0.1,0,0.2,0c0.1,0,0.1,0,0.2,0c0.1,0,0.1,0,0.2,0v5.6
		c-0.2,0.1-0.4,0.1-0.7,0.1c-0.2,0-0.5,0.1-0.8,0.1c-0.3,0-0.5,0-0.8-0.1c-0.2-0.1-0.5-0.2-0.7-0.3c-0.2-0.2-0.3-0.4-0.4-0.6
		c-0.1-0.3-0.2-0.6-0.2-0.9c0-0.3,0-0.6,0.1-0.9s0.2-0.5,0.4-0.7c0.2-0.2,0.4-0.3,0.6-0.4c0.2-0.1,0.5-0.2,0.8-0.2
		c0.1,0,0.3,0,0.4,0c0.1,0,0.3,0,0.4,0.1V47z M38.1,49.4c-0.1,0-0.2-0.1-0.3-0.1c-0.1,0-0.2,0-0.4,0c-0.2,0-0.4,0-0.5,0.1
		c-0.2,0.1-0.3,0.2-0.4,0.3c-0.1,0.1-0.2,0.3-0.2,0.5s-0.1,0.4-0.1,0.6c0,0.5,0.1,0.8,0.3,1.1c0.2,0.2,0.5,0.3,0.9,0.3
		c0.1,0,0.3,0,0.4,0c0.1,0,0.2,0,0.3-0.1V49.4z"/>
	<path fill="#A7A9AC" d="M40.1,48.7c0.1,0,0.1,0,0.2,0c0.1,0,0.1,0,0.2,0c0.1,0,0.1,0,0.2,0c0.1,0,0.1,0,0.2,0v2.2
		c0,0.2,0,0.5,0.1,0.6s0.1,0.3,0.2,0.4c0.1,0.1,0.2,0.2,0.3,0.2c0.1,0,0.3,0.1,0.5,0.1c0.3,0,0.5,0,0.7-0.1v-3.3c0.1,0,0.1,0,0.2,0
		c0.1,0,0.1,0,0.2,0s0.1,0,0.2,0c0.1,0,0.1,0,0.2,0v3.8c-0.2,0.1-0.4,0.1-0.6,0.1c-0.2,0-0.5,0.1-0.8,0.1c-0.3,0-0.5,0-0.7-0.1
		c-0.2,0-0.4-0.1-0.6-0.3s-0.3-0.3-0.4-0.6c-0.1-0.2-0.1-0.6-0.1-1V48.7z"/>
	<path fill="#A7A9AC" d="M47.2,52c0,0.1,0.1,0.2,0.1,0.3c0,0.1,0,0.2,0.1,0.3c-0.3,0.1-0.7,0.2-1,0.2c-0.7,0-1.2-0.2-1.5-0.6
		c-0.3-0.4-0.5-0.9-0.5-1.5c0-0.3,0-0.6,0.1-0.8c0.1-0.3,0.2-0.5,0.4-0.7c0.2-0.2,0.4-0.3,0.6-0.4c0.2-0.1,0.5-0.2,0.8-0.2
		c0.2,0,0.4,0,0.6,0c0.2,0,0.3,0.1,0.5,0.1c0,0.1,0,0.2,0,0.3c0,0.1-0.1,0.2-0.1,0.3c-0.3-0.1-0.5-0.1-0.9-0.1
		c-0.4,0-0.7,0.1-0.9,0.4c-0.2,0.3-0.3,0.6-0.3,1c0,0.5,0.1,0.9,0.3,1.1c0.2,0.2,0.5,0.3,0.9,0.3c0.2,0,0.3,0,0.4,0
		S47.1,52.1,47.2,52z"/>
	<path fill="#A7A9AC" d="M50.3,50.1c0-0.3-0.1-0.5-0.2-0.6c-0.2-0.1-0.4-0.2-0.7-0.2c-0.2,0-0.3,0-0.5,0c-0.2,0-0.3,0.1-0.5,0.1
		c-0.1-0.2-0.1-0.4-0.1-0.6c0.2-0.1,0.4-0.1,0.6-0.1c0.2,0,0.4,0,0.6,0c0.5,0,0.9,0.1,1.2,0.4c0.3,0.2,0.4,0.6,0.4,1.1v2.5
		c-0.2,0-0.4,0.1-0.7,0.1c-0.3,0-0.5,0.1-0.8,0.1c-0.3,0-0.5,0-0.7-0.1c-0.2,0-0.4-0.1-0.5-0.2c-0.1-0.1-0.3-0.2-0.3-0.4
		C48,51.9,48,51.7,48,51.5c0-0.2,0-0.4,0.1-0.6c0.1-0.2,0.2-0.3,0.4-0.4c0.2-0.1,0.3-0.2,0.5-0.2c0.2-0.1,0.4-0.1,0.6-0.1
		c0.2,0,0.3,0,0.4,0s0.2,0,0.3,0V50.1z M50.3,50.8c-0.1,0-0.2,0-0.3,0c-0.1,0-0.2,0-0.3,0c-0.3,0-0.6,0.1-0.7,0.2
		c-0.2,0.1-0.3,0.3-0.3,0.5c0,0.2,0,0.3,0.1,0.4c0.1,0.1,0.1,0.2,0.2,0.2c0.1,0,0.2,0.1,0.3,0.1c0.1,0,0.2,0,0.3,0
		c0.1,0,0.2,0,0.4,0c0.1,0,0.2,0,0.3-0.1V50.8z"/>
	<path fill="#A7A9AC" d="M52.4,49.3h-0.6l0-0.1l1.3-1.5h0.1v1h1c0,0.1,0,0.2,0,0.3c0,0.1,0,0.1,0,0.2c0,0.1,0,0.1,0,0.2h-1v1.8
		c0,0.2,0,0.4,0,0.5s0,0.2,0.1,0.3c0,0.1,0.1,0.1,0.2,0.1c0.1,0,0.2,0,0.3,0c0.1,0,0.2,0,0.2,0c0.1,0,0.1,0,0.2,0
		c0,0.1,0.1,0.2,0.1,0.3c0,0.1,0,0.2,0,0.3c-0.1,0-0.2,0-0.3,0.1c-0.1,0-0.2,0-0.4,0c-0.4,0-0.7-0.1-0.9-0.3
		c-0.2-0.2-0.3-0.5-0.3-0.9V49.3z"/>
	<path fill="#A7A9AC" d="M55.2,49.3h-0.5c0,0,0-0.1,0-0.1c0-0.1,0-0.1,0-0.2c0-0.1,0-0.1,0-0.2c0-0.1,0-0.1,0-0.1H56v4
		c-0.1,0-0.1,0-0.2,0c-0.1,0-0.1,0-0.2,0c-0.1,0-0.1,0-0.2,0c-0.1,0-0.1,0-0.2,0V49.3z M55.1,47.9c0-0.1,0-0.1,0-0.2
		c0-0.1,0-0.1,0-0.2s0-0.1,0-0.2c0-0.1,0-0.1,0-0.2c0.1,0,0.1,0,0.2,0c0.1,0,0.1,0,0.2,0s0.1,0,0.2,0c0.1,0,0.1,0,0.2,0
		c0,0.1,0,0.1,0,0.2c0,0.1,0,0.1,0,0.2s0,0.1,0,0.2c0,0.1,0,0.1,0,0.2c-0.1,0-0.1,0-0.2,0c-0.1,0-0.1,0-0.2,0c-0.1,0-0.1,0-0.2,0
		S55.1,47.9,55.1,47.9z"/>
	<path fill="#A7A9AC" d="M58.8,52.8c-0.3,0-0.6-0.1-0.8-0.2s-0.4-0.3-0.6-0.4c-0.2-0.2-0.3-0.4-0.3-0.7C57,51.3,57,51,57,50.7
		s0-0.6,0.1-0.8c0.1-0.3,0.2-0.5,0.3-0.7c0.2-0.2,0.3-0.3,0.6-0.4c0.2-0.1,0.5-0.2,0.8-0.2s0.6,0.1,0.8,0.2c0.2,0.1,0.4,0.3,0.6,0.4
		c0.2,0.2,0.3,0.4,0.3,0.7c0.1,0.3,0.1,0.5,0.1,0.8s0,0.6-0.1,0.8c-0.1,0.3-0.2,0.5-0.3,0.7c-0.2,0.2-0.3,0.3-0.6,0.4
		C59.4,52.7,59.1,52.8,58.8,52.8z M58.8,52.2c0.4,0,0.6-0.1,0.8-0.4c0.2-0.3,0.3-0.6,0.3-1.1s-0.1-0.8-0.3-1.1
		c-0.2-0.3-0.4-0.4-0.8-0.4s-0.6,0.1-0.8,0.4c-0.2,0.3-0.3,0.6-0.3,1.1s0.1,0.8,0.3,1.1C58.2,52,58.5,52.2,58.8,52.2z"/>
	<path fill="#A7A9AC" d="M61.7,48.7c0.1,0,0.1,0,0.2,0c0.1,0,0.1,0,0.2,0s0.1,0,0.2,0c0,0,0.1,0,0.2,0c0,0.1,0,0.2,0,0.3
		c0,0.1,0,0.2,0,0.3c0.1-0.1,0.1-0.2,0.2-0.3c0.1-0.1,0.2-0.2,0.3-0.2c0.1-0.1,0.2-0.1,0.4-0.2c0.1,0,0.3-0.1,0.4-0.1
		c0.5,0,0.8,0.1,1,0.4c0.2,0.3,0.3,0.6,0.3,1.2v2.5c-0.1,0-0.1,0-0.2,0c-0.1,0-0.1,0-0.2,0s-0.1,0-0.2,0c-0.1,0-0.1,0-0.2,0v-2.3
		c0-0.4-0.1-0.6-0.2-0.8c-0.1-0.2-0.3-0.3-0.5-0.3c-0.1,0-0.3,0-0.4,0.1c-0.1,0.1-0.2,0.1-0.3,0.2c-0.1,0.1-0.2,0.2-0.2,0.4
		c-0.1,0.2-0.1,0.4-0.1,0.6v2c-0.1,0-0.1,0-0.2,0c-0.1,0-0.1,0-0.2,0c-0.1,0-0.1,0-0.2,0c-0.1,0-0.1,0-0.2,0V48.7z"/>
	<path fill="#A7A9AC" d="M68.2,50.1c0-0.3-0.1-0.5-0.2-0.6s-0.4-0.2-0.7-0.2c-0.2,0-0.3,0-0.5,0c-0.2,0-0.3,0.1-0.5,0.1
		c-0.1-0.2-0.1-0.4-0.1-0.6c0.2-0.1,0.4-0.1,0.6-0.1c0.2,0,0.4,0,0.6,0c0.5,0,0.9,0.1,1.2,0.4s0.4,0.6,0.4,1.1v2.5
		c-0.2,0-0.4,0.1-0.7,0.1c-0.3,0-0.5,0.1-0.8,0.1c-0.3,0-0.5,0-0.7-0.1c-0.2,0-0.4-0.1-0.5-0.2c-0.1-0.1-0.3-0.2-0.3-0.4
		c-0.1-0.2-0.1-0.4-0.1-0.6c0-0.2,0-0.4,0.1-0.6c0.1-0.2,0.2-0.3,0.4-0.4c0.2-0.1,0.3-0.2,0.5-0.2c0.2-0.1,0.4-0.1,0.6-0.1
		c0.2,0,0.3,0,0.4,0c0.1,0,0.2,0,0.3,0V50.1z M68.2,50.8c-0.1,0-0.2,0-0.3,0c-0.1,0-0.2,0-0.3,0c-0.3,0-0.6,0.1-0.7,0.2
		c-0.2,0.1-0.3,0.3-0.3,0.5c0,0.2,0,0.3,0.1,0.4c0.1,0.1,0.1,0.2,0.2,0.2c0.1,0,0.2,0.1,0.3,0.1c0.1,0,0.2,0,0.3,0
		c0.1,0,0.2,0,0.4,0c0.1,0,0.2,0,0.3-0.1V50.8z"/>
	<path fill="#A7A9AC" d="M70.1,47c0.1,0,0.1,0,0.2,0c0.1,0,0.1,0,0.2,0c0.1,0,0.1,0,0.2,0c0.1,0,0.1,0,0.2,0v4.5c0,0.1,0,0.3,0,0.3
		C71,51.9,71,52,71,52c0,0,0.1,0.1,0.2,0.1c0.1,0,0.1,0,0.2,0c0,0,0.1,0,0.2,0c0.1,0,0.1,0,0.2,0c0,0.2,0.1,0.4,0.1,0.6
		c-0.1,0-0.2,0-0.3,0.1c-0.1,0-0.2,0-0.3,0c-0.1,0-0.3,0-0.4-0.1s-0.2-0.1-0.3-0.2s-0.2-0.2-0.2-0.3s-0.1-0.3-0.1-0.5V47z"/>
	<path fill="#A7A9AC" d="M75.3,47.8h-1c0-0.1,0-0.1,0-0.2c0-0.1,0-0.1,0-0.2s0-0.1,0-0.2c0-0.1,0-0.1,0-0.2h1.8v4
		c0,0.3,0,0.6-0.1,0.8c-0.1,0.2-0.2,0.4-0.3,0.5c-0.1,0.1-0.3,0.2-0.5,0.3c-0.2,0.1-0.4,0.1-0.6,0.1c-0.1,0-0.2,0-0.4,0
		c-0.1,0-0.2,0-0.3-0.1c0-0.1,0-0.2,0-0.3S74,52.1,74,52c0.1,0,0.1,0,0.2,0c0.1,0,0.2,0,0.3,0c0.1,0,0.2,0,0.3,0
		c0.1,0,0.2,0,0.3-0.1c0.1-0.1,0.1-0.1,0.2-0.2c0.1-0.1,0.1-0.2,0.1-0.4V47.8z"/>
	<path fill="#A7A9AC" d="M78.9,52.8c-0.3,0-0.6-0.1-0.8-0.2c-0.2-0.1-0.4-0.3-0.6-0.4s-0.3-0.4-0.3-0.7c-0.1-0.3-0.1-0.5-0.1-0.8
		s0-0.6,0.1-0.8c0.1-0.3,0.2-0.5,0.3-0.7s0.3-0.3,0.6-0.4c0.2-0.1,0.5-0.2,0.8-0.2s0.6,0.1,0.8,0.2c0.2,0.1,0.4,0.3,0.6,0.4
		s0.3,0.4,0.3,0.7c0.1,0.3,0.1,0.5,0.1,0.8s0,0.6-0.1,0.8c-0.1,0.3-0.2,0.5-0.3,0.7s-0.3,0.3-0.6,0.4C79.5,52.7,79.3,52.8,78.9,52.8
		z M78.9,52.2c0.4,0,0.6-0.1,0.8-0.4c0.2-0.3,0.3-0.6,0.3-1.1s-0.1-0.8-0.3-1.1c-0.2-0.3-0.4-0.4-0.8-0.4s-0.6,0.1-0.8,0.4
		c-0.2,0.3-0.3,0.6-0.3,1.1s0.1,0.8,0.3,1.1C78.3,52,78.6,52.2,78.9,52.2z"/>
	<path fill="#A7A9AC" d="M83.4,52.8c-0.3,0-0.6-0.1-0.8-0.2c-0.2-0.1-0.4-0.3-0.6-0.4s-0.3-0.4-0.3-0.7c-0.1-0.3-0.1-0.5-0.1-0.8
		s0-0.6,0.1-0.8c0.1-0.3,0.2-0.5,0.3-0.7s0.3-0.3,0.6-0.4c0.2-0.1,0.5-0.2,0.8-0.2s0.6,0.1,0.8,0.2c0.2,0.1,0.4,0.3,0.6,0.4
		s0.3,0.4,0.3,0.7c0.1,0.3,0.1,0.5,0.1,0.8s0,0.6-0.1,0.8c-0.1,0.3-0.2,0.5-0.3,0.7s-0.3,0.3-0.6,0.4C84,52.7,83.7,52.8,83.4,52.8z
		 M83.4,52.2c0.4,0,0.6-0.1,0.8-0.4c0.2-0.3,0.3-0.6,0.3-1.1s-0.1-0.8-0.3-1.1c-0.2-0.3-0.4-0.4-0.8-0.4s-0.6,0.1-0.8,0.4
		c-0.2,0.3-0.3,0.6-0.3,1.1s0.1,0.8,0.3,1.1C82.8,52,83,52.2,83.4,52.2z"/>
	<path fill="#A7A9AC" d="M86.2,48.7c0.1,0,0.1,0,0.2,0c0.1,0,0.1,0,0.2,0s0.1,0,0.2,0c0,0,0.1,0,0.2,0c0,0.1,0,0.2,0,0.3
		c0,0.1,0,0.2,0,0.3c0-0.1,0.1-0.2,0.2-0.3c0.1-0.1,0.2-0.2,0.2-0.2c0.1-0.1,0.2-0.1,0.3-0.2c0.1,0,0.3-0.1,0.4-0.1
		c0.3,0,0.5,0.1,0.7,0.2c0.2,0.1,0.3,0.3,0.4,0.5c0.1-0.1,0.1-0.2,0.2-0.3c0.1-0.1,0.2-0.2,0.3-0.2c0.1-0.1,0.2-0.1,0.3-0.2
		c0.1,0,0.3-0.1,0.4-0.1c0.5,0,0.8,0.1,1,0.4c0.2,0.3,0.3,0.6,0.3,1.1v2.5c-0.1,0-0.1,0-0.2,0c-0.1,0-0.1,0-0.2,0s-0.1,0-0.2,0
		c-0.1,0-0.1,0-0.2,0v-2.3c0-0.4-0.1-0.6-0.2-0.8s-0.3-0.3-0.5-0.3c-0.3,0-0.5,0.1-0.6,0.3s-0.2,0.5-0.2,0.8v2.2c-0.1,0-0.1,0-0.2,0
		c-0.1,0-0.1,0-0.2,0s-0.1,0-0.2,0c-0.1,0-0.1,0-0.2,0v-2.4c0-0.3-0.1-0.6-0.2-0.8c-0.1-0.2-0.3-0.3-0.5-0.3c-0.1,0-0.2,0-0.4,0.1
		c-0.1,0.1-0.2,0.1-0.3,0.3s-0.2,0.3-0.2,0.4c0,0.2-0.1,0.4-0.1,0.6v2c-0.1,0-0.1,0-0.2,0c-0.1,0-0.1,0-0.2,0s-0.1,0-0.2,0
		c-0.1,0-0.1,0-0.2,0V48.7z"/>
	<path fill="#A7A9AC" d="M92.8,47c0.1,0,0.1,0,0.2,0c0.1,0,0.1,0,0.2,0c0.1,0,0.1,0,0.2,0c0.1,0,0.1,0,0.2,0v4.5c0,0.1,0,0.3,0,0.3
		c0,0.1,0.1,0.1,0.1,0.2c0,0,0.1,0.1,0.2,0.1c0.1,0,0.1,0,0.2,0c0,0,0.1,0,0.2,0c0.1,0,0.1,0,0.2,0c0,0.2,0.1,0.4,0.1,0.6
		c-0.1,0-0.2,0-0.3,0.1c-0.1,0-0.2,0-0.3,0c-0.1,0-0.3,0-0.4-0.1s-0.2-0.1-0.3-0.2s-0.2-0.2-0.2-0.3s-0.1-0.3-0.1-0.5V47z"/>
	<path fill="#A7A9AC" d="M97.2,50.1c0-0.3-0.1-0.5-0.2-0.6s-0.4-0.2-0.7-0.2c-0.2,0-0.3,0-0.5,0s-0.3,0.1-0.5,0.1
		c-0.1-0.2-0.1-0.4-0.1-0.6c0.2-0.1,0.4-0.1,0.6-0.1c0.2,0,0.4,0,0.6,0c0.5,0,0.9,0.1,1.2,0.4c0.3,0.2,0.4,0.6,0.4,1.1v2.5
		c-0.2,0-0.4,0.1-0.7,0.1c-0.3,0-0.5,0.1-0.8,0.1c-0.3,0-0.5,0-0.7-0.1c-0.2,0-0.4-0.1-0.5-0.2c-0.1-0.1-0.3-0.2-0.3-0.4
		s-0.1-0.4-0.1-0.6c0-0.2,0-0.4,0.1-0.6c0.1-0.2,0.2-0.3,0.4-0.4c0.2-0.1,0.3-0.2,0.5-0.2c0.2-0.1,0.4-0.1,0.6-0.1
		c0.2,0,0.3,0,0.4,0c0.1,0,0.2,0,0.3,0V50.1z M97.2,50.8c-0.1,0-0.2,0-0.3,0c-0.1,0-0.2,0-0.3,0c-0.3,0-0.6,0.1-0.7,0.2
		c-0.2,0.1-0.3,0.3-0.3,0.5c0,0.2,0,0.3,0.1,0.4c0.1,0.1,0.1,0.2,0.2,0.2c0.1,0,0.2,0.1,0.3,0.1c0.1,0,0.2,0,0.3,0
		c0.1,0,0.2,0,0.4,0c0.1,0,0.2,0,0.3-0.1V50.8z"/>
	<path fill="#A7A9AC" d="M102,47.8h-1.4c0-0.1,0-0.1,0-0.2c0-0.1,0-0.1,0-0.2s0-0.1,0-0.2c0-0.1,0-0.1,0-0.2h3.7c0,0.1,0,0.1,0,0.2
		c0,0.1,0,0.1,0,0.2s0,0.1,0,0.2c0,0.1,0,0.1,0,0.2h-1.4v4.9c-0.1,0-0.2,0-0.4,0c-0.1,0-0.3,0-0.4,0V47.8z"/>
	<path fill="#A7A9AC" d="M105,50.9c0,0.4,0.1,0.7,0.3,1c0.2,0.2,0.5,0.3,0.9,0.3c0.4,0,0.7-0.1,1-0.2c0,0.1,0.1,0.2,0.1,0.3
		c0,0.1,0,0.2,0,0.3c-0.2,0.1-0.4,0.1-0.6,0.2c-0.2,0-0.4,0.1-0.7,0.1c-0.4,0-0.7,0-0.9-0.2c-0.3-0.1-0.5-0.2-0.6-0.4
		c-0.2-0.2-0.3-0.4-0.4-0.6s-0.1-0.5-0.1-0.8c0-0.3,0-0.6,0.1-0.8c0.1-0.3,0.2-0.5,0.3-0.7c0.2-0.2,0.3-0.3,0.6-0.4
		c0.2-0.1,0.5-0.2,0.8-0.2c0.3,0,0.5,0,0.7,0.1s0.4,0.2,0.5,0.4c0.1,0.2,0.2,0.4,0.3,0.6c0.1,0.2,0.1,0.5,0.1,0.7c0,0.1,0,0.1,0,0.2
		c0,0.1,0,0.1,0,0.2H105z M106.9,50.3c0-0.1,0-0.3-0.1-0.4c0-0.1-0.1-0.2-0.2-0.3c-0.1-0.1-0.2-0.2-0.3-0.2
		c-0.1-0.1-0.3-0.1-0.4-0.1c-0.3,0-0.6,0.1-0.7,0.3c-0.2,0.2-0.3,0.5-0.3,0.8H106.9z"/>
	<path fill="#A7A9AC" d="M108.7,48.7c0.1,0,0.1,0,0.2,0c0.1,0,0.1,0,0.2,0s0.1,0,0.2,0c0,0,0.1,0,0.2,0c0,0.1,0,0.2,0,0.3
		c0,0.1,0,0.2,0,0.3c0-0.1,0.1-0.2,0.2-0.3c0.1-0.1,0.2-0.2,0.2-0.2c0.1-0.1,0.2-0.1,0.3-0.2c0.1,0,0.3-0.1,0.4-0.1
		c0.3,0,0.5,0.1,0.7,0.2c0.2,0.1,0.3,0.3,0.4,0.5c0.1-0.1,0.1-0.2,0.2-0.3c0.1-0.1,0.2-0.2,0.3-0.2c0.1-0.1,0.2-0.1,0.3-0.2
		c0.1,0,0.3-0.1,0.4-0.1c0.5,0,0.8,0.1,1,0.4c0.2,0.3,0.3,0.6,0.3,1.1v2.5c-0.1,0-0.1,0-0.2,0c-0.1,0-0.1,0-0.2,0s-0.1,0-0.2,0
		c-0.1,0-0.1,0-0.2,0v-2.3c0-0.4-0.1-0.6-0.2-0.8s-0.3-0.3-0.5-0.3c-0.3,0-0.5,0.1-0.6,0.3s-0.2,0.5-0.2,0.8v2.2c-0.1,0-0.1,0-0.2,0
		c-0.1,0-0.1,0-0.2,0s-0.1,0-0.2,0c-0.1,0-0.1,0-0.2,0v-2.4c0-0.3-0.1-0.6-0.2-0.8c-0.1-0.2-0.3-0.3-0.5-0.3c-0.1,0-0.2,0-0.4,0.1
		c-0.1,0.1-0.2,0.1-0.3,0.3s-0.2,0.3-0.2,0.4c0,0.2-0.1,0.4-0.1,0.6v2c-0.1,0-0.1,0-0.2,0c-0.1,0-0.1,0-0.2,0s-0.1,0-0.2,0
		c-0.1,0-0.1,0-0.2,0V48.7z"/>
	<path fill="#A7A9AC" d="M115.3,48.7c0.1,0,0.1,0,0.2,0c0.1,0,0.1,0,0.2,0c0.1,0,0.1,0,0.2,0c0.1,0,0.1,0,0.2,0c0,0,0,0,0,0.1
		s0,0.1,0,0.2s0,0.1,0,0.2c0,0.1,0,0.1,0,0.1c0.1-0.1,0.1-0.2,0.2-0.2c0.1-0.1,0.2-0.1,0.3-0.2s0.2-0.1,0.3-0.1s0.3-0.1,0.4-0.1
		c0.2,0,0.4,0,0.6,0.1s0.4,0.2,0.5,0.4s0.3,0.4,0.3,0.6c0.1,0.2,0.1,0.5,0.1,0.9c0,0.7-0.2,1.2-0.6,1.6s-0.9,0.6-1.6,0.6
		c-0.1,0-0.2,0-0.3,0c-0.1,0-0.2,0-0.3-0.1v1.8c-0.1,0-0.1,0-0.2,0c-0.1,0-0.1,0-0.2,0s-0.1,0-0.2,0c-0.1,0-0.1,0-0.2,0V48.7z
		 M116.1,52c0.1,0,0.2,0.1,0.3,0.1c0.1,0,0.2,0,0.4,0c0.2,0,0.4,0,0.5-0.1c0.2-0.1,0.3-0.2,0.4-0.3c0.1-0.1,0.2-0.3,0.3-0.5
		c0.1-0.2,0.1-0.4,0.1-0.7c0-0.4-0.1-0.7-0.2-1c-0.2-0.2-0.4-0.4-0.7-0.4c-0.1,0-0.3,0-0.4,0.1c-0.1,0-0.2,0.1-0.3,0.2
		s-0.2,0.2-0.2,0.4s-0.1,0.3-0.1,0.5V52z"/>
	<path fill="#A7A9AC" d="M119.8,47c0.1,0,0.1,0,0.2,0c0.1,0,0.1,0,0.2,0c0.1,0,0.1,0,0.2,0c0.1,0,0.1,0,0.2,0v4.5c0,0.1,0,0.3,0,0.3
		c0,0.1,0.1,0.1,0.1,0.2c0,0,0.1,0.1,0.2,0.1c0.1,0,0.1,0,0.2,0c0,0,0.1,0,0.2,0c0.1,0,0.1,0,0.2,0c0,0.2,0.1,0.4,0.1,0.6
		c-0.1,0-0.2,0-0.3,0.1c-0.1,0-0.2,0-0.3,0c-0.1,0-0.3,0-0.4-0.1s-0.2-0.1-0.3-0.2s-0.2-0.2-0.2-0.3s-0.1-0.3-0.1-0.5V47z"/>
	<path fill="#A7A9AC" d="M124.2,50.1c0-0.3-0.1-0.5-0.2-0.6s-0.4-0.2-0.7-0.2c-0.2,0-0.3,0-0.5,0s-0.3,0.1-0.5,0.1
		c-0.1-0.2-0.1-0.4-0.1-0.6c0.2-0.1,0.4-0.1,0.6-0.1c0.2,0,0.4,0,0.6,0c0.5,0,0.9,0.1,1.2,0.4c0.3,0.2,0.4,0.6,0.4,1.1v2.5
		c-0.2,0-0.4,0.1-0.7,0.1c-0.3,0-0.5,0.1-0.8,0.1c-0.3,0-0.5,0-0.7-0.1c-0.2,0-0.4-0.1-0.5-0.2c-0.1-0.1-0.3-0.2-0.3-0.4
		s-0.1-0.4-0.1-0.6c0-0.2,0-0.4,0.1-0.6c0.1-0.2,0.2-0.3,0.4-0.4c0.2-0.1,0.3-0.2,0.5-0.2c0.2-0.1,0.4-0.1,0.6-0.1
		c0.2,0,0.3,0,0.4,0c0.1,0,0.2,0,0.3,0V50.1z M124.2,50.8c-0.1,0-0.2,0-0.3,0c-0.1,0-0.2,0-0.3,0c-0.3,0-0.6,0.1-0.7,0.2
		c-0.2,0.1-0.3,0.3-0.3,0.5c0,0.2,0,0.3,0.1,0.4c0.1,0.1,0.1,0.2,0.2,0.2c0.1,0,0.2,0.1,0.3,0.1c0.1,0,0.2,0,0.3,0
		c0.1,0,0.2,0,0.4,0c0.1,0,0.2,0,0.3-0.1V50.8z"/>
	<path fill="#A7A9AC" d="M126.3,49.3h-0.6l0-0.1l1.3-1.5h0.1v1h1c0,0.1,0,0.2,0,0.3c0,0.1,0,0.1,0,0.2c0,0.1,0,0.1,0,0.2h-1v1.8
		c0,0.2,0,0.4,0,0.5c0,0.1,0,0.2,0.1,0.3c0,0.1,0.1,0.1,0.2,0.1c0.1,0,0.2,0,0.3,0c0.1,0,0.2,0,0.2,0s0.1,0,0.2,0
		c0,0.1,0.1,0.2,0.1,0.3c0,0.1,0,0.2,0,0.3c-0.1,0-0.2,0-0.3,0.1c-0.1,0-0.2,0-0.4,0c-0.4,0-0.7-0.1-0.9-0.3
		c-0.2-0.2-0.3-0.5-0.3-0.9V49.3z"/>
	<path fill="#A7A9AC" d="M129.5,50.9c0,0.4,0.1,0.7,0.3,1c0.2,0.2,0.5,0.3,0.9,0.3c0.4,0,0.7-0.1,1-0.2c0,0.1,0.1,0.2,0.1,0.3
		c0,0.1,0,0.2,0,0.3c-0.2,0.1-0.4,0.1-0.6,0.2c-0.2,0-0.4,0.1-0.7,0.1c-0.4,0-0.7,0-0.9-0.2c-0.3-0.1-0.5-0.2-0.6-0.4
		c-0.2-0.2-0.3-0.4-0.4-0.6s-0.1-0.5-0.1-0.8c0-0.3,0-0.6,0.1-0.8c0.1-0.3,0.2-0.5,0.3-0.7c0.2-0.2,0.3-0.3,0.6-0.4
		c0.2-0.1,0.5-0.2,0.8-0.2c0.3,0,0.5,0,0.7,0.1s0.4,0.2,0.5,0.4c0.1,0.2,0.2,0.4,0.3,0.6c0.1,0.2,0.1,0.5,0.1,0.7c0,0.1,0,0.1,0,0.2
		c0,0.1,0,0.1,0,0.2H129.5z M131.4,50.3c0-0.1,0-0.3-0.1-0.4c0-0.1-0.1-0.2-0.2-0.3c-0.1-0.1-0.2-0.2-0.3-0.2
		c-0.1-0.1-0.3-0.1-0.4-0.1c-0.3,0-0.6,0.1-0.7,0.3c-0.2,0.2-0.3,0.5-0.3,0.8H131.4z"/>
</g>
<g>
	<path fill="#998675" d="M13.8,1.3c0.5,3,2.1,5.5,3.6,8c1.5,2.6,1.6,5.1,0.6,7.8c-1.1,2.8-3,5.1-5.4,7.2c0.6-1.5,1.1-2.9,1.4-4.3
		c0.5-2.5,0.3-4.8-0.9-7.1c-1.8-3.2-1.4-6.5-0.1-9.7C13.2,2.5,13.5,1.9,13.8,1.3z"/>
	<path fill="#998675" d="M11.4,23.5c-0.1-1.6-0.2-3.1-0.6-4.5c-0.3-1.2-0.9-2.2-1.7-3.1c-1.8-2-1.9-4.4-1.5-7C7.7,8.5,7.9,8.1,8,7.6
		c0.7,2,2,3.5,3.4,4.9c2.6,2.7,2.7,6.4,1.1,9.4C12.2,22.4,11.9,23,11.4,23.5z"/>
	<path fill="#998675" d="M10.9,10.4C9,9.1,8.1,6.2,9.5,4.1c0.6-1,1.2-2,1.5-3.4c0.7,1.5,1.3,2.9,0.6,4.4
		C10.7,6.8,10.5,8.5,10.9,10.4z"/>
	<path fill="#998675" d="M10.5,22.9c-0.5-1.5-1.6-2.5-2.6-3.6c-1.4-1.3-1.8-2.9-1.4-4.7c0-0.2,0.1-0.5,0.2-0.8
		c0.6,1.4,1.6,2.3,2.5,3.4C10.4,18.8,10.8,20.8,10.5,22.9z"/>
	<path fill="#998675" d="M8.9,31.9c0.3-1.9,0.6-3.6,1-5.2c0.1-0.5,1-0.9,1.6-1c3.2-0.1,6.5-0.1,9.7,0c0.4,0,1,0.3,1.1,0.6
		c0.8,1.8,1.5,3.6,2.3,5.6C19.3,31.9,14.2,31.9,8.9,31.9z"/>
	<path fill="#998675" d="M14.1,51.8c-0.5-1.5-1-2.9-1.4-4.2c-0.8-2.2-1.5-4.4-2.3-6.5c-0.1-0.2-0.2-0.5-0.2-0.7
		c-0.6-2.3-0.2-2.9,2.2-2.9c1.9,0,3.9,0,5.8,0c0.9,0,1.3,0.3,1.2,1.1c-0.1,0.7,0,1.5-0.3,2.1c-1.4,3.5-3,7-4.5,10.5
		C14.5,51.4,14.3,51.5,14.1,51.8z"/>
	<path fill="#998675" d="M8.5,25.8c-0.4,1.9-0.7,3.6-1.1,5.3C7.3,31.5,6.7,32,6.3,32c-1.2,0.1-2.4,0.1-3.6,0c-1.4-0.1-1.8-0.7-1.3-2
		c0.1-0.2,0.2-0.4,0.3-0.7C3.5,25.2,3.6,25.1,8.5,25.8z"/>
	<path fill="#998675" d="M5.8,37.5c1.1,0,1.8,0,2.6,0c0.1,0.1,0.2,0.2,0.2,0.3c-0.2,4.1,2.2,7.4,3.1,11.1c0.3,1.3,1,2.6,1.3,4
		c0.2,0.7,0,1.5,0,2.3c-0.1,0-0.3,0.1-0.4,0.1c-0.5-1.1-1-2.2-1.5-3.3c-1.6-3.6-3.2-7.2-4.6-10.9C6,40.1,6,38.8,5.8,37.5z"/>
	<path fill="#998675" d="M23,33.6c-2.1,1.9-4.4,2.7-7.2,2.4c-1.3-0.1-2.6,0-3.9,0c-2.2,0-2.2,0-3-2.4C13.6,33.6,18.3,33.6,23,33.6z"
		/>
	<path fill="#998675" d="M2.3,33.5c1.4,0,2.8-0.3,4.1,0.1c0.8,0.2,1.4,1.3,2.3,2.2C5.7,36.8,4.2,34.7,2.3,33.5z"/>
</g>
</svg>
